<?xml version="1.0" standalone="no"?>
<!DOCTYPE svg PUBLIC "-//W3C//DTD SVG 20010904//EN"
 "http://www.w3.org/TR/2001/REC-SVG-20010904/DTD/svg10.dtd">
<svg version="1.0" xmlns="http://www.w3.org/2000/svg"
 width="736.000000pt" height="735.000000pt" viewBox="0 0 736.000000 735.000000"
 preserveAspectRatio="xMidYMid meet">

<g transform="translate(0.000000,735.000000) scale(0.100000,-0.100000)"
fill="#000000" stroke="none">
<path d="M3485 6945 c-11 -2 -76 -9 -145 -15 -131 -12 -372 -56 -500 -91 -169
-46 -457 -151 -566 -207 l-38 -20 52 -7 c59 -8 70 -25 16 -25 -45 0 -36 -17
14 -26 56 -10 123 -39 185 -78 30 -19 73 -41 96 -48 23 -7 41 -19 41 -26 0 -7
11 -17 23 -21 13 -5 50 -32 81 -59 31 -28 72 -61 91 -73 44 -30 52 -49 21 -49
-13 0 -36 -4 -52 -10 -16 -5 -42 -11 -59 -13 -72 -11 -288 -102 -335 -141 -8
-7 -35 -23 -60 -35 -25 -13 -61 -36 -80 -53 -19 -16 -46 -39 -60 -50 -14 -12
-46 -38 -73 -59 -26 -21 -60 -53 -75 -71 -15 -18 -37 -41 -49 -51 -13 -10 -23
-22 -23 -25 0 -4 -28 -37 -63 -73 -168 -177 -232 -279 -250 -403 -7 -47 -7
-47 81 82 77 114 157 211 263 323 24 25 56 58 70 75 33 36 107 102 144 129 16
11 58 44 94 72 36 29 71 53 78 53 6 0 13 4 15 8 4 12 162 94 228 119 30 12 89
29 130 38 41 9 102 22 135 30 143 32 245 43 434 44 124 1 142 3 131 15 -12 16
-9 17 104 31 44 6 49 5 37 -9 -17 -20 -2 -24 179 -36 80 -5 168 -14 195 -19
69 -12 314 -76 322 -84 3 -4 16 -7 28 -7 26 0 88 -25 225 -89 42 -20 53 -25
98 -51 9 -6 24 -13 32 -17 8 -4 17 -10 20 -13 3 -4 23 -18 46 -31 23 -13 76
-48 119 -76 43 -29 81 -53 85 -53 4 0 15 -11 24 -25 9 -14 21 -25 27 -25 6 0
27 -12 45 -27 46 -38 214 -207 233 -237 85 -127 123 -176 137 -176 7 0 -87
176 -128 241 -19 30 -65 85 -102 123 -37 38 -65 70 -63 72 2 2 51 -5 108 -15
110 -20 306 -81 350 -109 42 -27 110 -93 156 -152 24 -30 53 -66 67 -80 30
-32 28 -28 92 -183 l55 -132 4 -500 c3 -456 8 -556 30 -607 6 -16 -1 -18 -76
-17 -46 0 -122 -3 -168 -6 l-84 -7 7 28 c17 81 26 136 30 199 3 39 8 95 11
125 8 67 -8 236 -35 385 -12 61 -23 124 -26 140 -3 17 -9 39 -14 50 -5 11 -18
58 -29 105 -21 85 -83 223 -126 276 l-23 29 24 -90 c13 -50 33 -123 44 -164
11 -41 22 -98 25 -125 5 -62 -6 -256 -14 -256 -4 0 -12 47 -19 105 -9 76 -20
121 -42 167 -30 62 -30 62 -26 23 3 -22 10 -69 15 -105 6 -36 13 -105 17 -155
3 -49 8 -93 10 -97 10 -15 5 -378 -6 -463 -12 -97 -34 -206 -55 -270 -18 -57
-61 -210 -100 -355 -26 -100 -107 -288 -176 -410 -5 -8 -26 -49 -48 -90 -72
-139 -80 -152 -94 -169 -8 -9 -22 -32 -31 -51 -9 -19 -36 -56 -59 -81 -24 -25
-53 -61 -65 -80 -25 -41 -139 -155 -147 -147 -3 2 3 27 14 54 10 27 24 72 31
99 16 60 23 307 11 352 -8 30 -5 35 66 110 67 70 121 148 110 159 -2 2 -44
-30 -93 -72 -160 -138 -423 -295 -512 -307 -24 -3 -47 -8 -50 -12 -12 -11 22
-25 64 -25 65 0 116 20 313 126 14 7 28 11 33 8 4 -3 6 -55 5 -115 l-2 -111
-115 -111 c-87 -84 -134 -122 -190 -151 -41 -21 -102 -54 -135 -72 -33 -18
-76 -38 -95 -44 -71 -24 -176 -63 -230 -85 -67 -28 -113 -42 -165 -51 -22 -3
-45 -11 -51 -16 -7 -5 -16 -8 -20 -6 -5 1 -34 -5 -64 -14 -31 -9 -113 -20
-185 -23 -71 -4 -134 -10 -138 -14 -26 -25 301 -38 408 -16 17 3 44 8 61 10
18 2 40 8 51 13 28 16 145 54 149 49 11 -11 -97 -101 -152 -127 -201 -93 -360
-130 -557 -130 -66 0 -88 -3 -85 -12 7 -20 71 -28 203 -26 139 2 125 14 145
-132 7 -47 22 -134 35 -195 13 -60 31 -148 40 -195 8 -47 27 -132 41 -190 23
-95 36 -154 49 -232 4 -27 -4 -36 -19 -21 -3 4 -12 8 -19 9 -7 1 -48 18 -90
38 -43 20 -80 36 -82 36 -4 0 -118 67 -155 90 -8 6 -25 14 -37 19 -11 6 -24
15 -28 20 -6 10 -19 123 -30 256 -3 33 -10 89 -15 125 -5 36 -15 119 -21 184
-14 156 -22 199 -36 203 -15 5 -65 -103 -93 -199 -12 -40 -27 -86 -35 -103 -7
-16 -24 -61 -38 -100 -14 -38 -32 -87 -41 -107 -9 -21 -16 -39 -16 -41 0 -3
18 -17 41 -31 22 -15 38 -30 35 -33 -3 -3 -17 2 -32 11 -40 27 -38 13 7 -37
42 -48 75 -74 194 -153 180 -119 239 -157 268 -170 18 -8 39 -18 47 -23 31
-19 107 -51 121 -51 8 0 19 -4 25 -9 5 -5 27 -14 49 -21 22 -7 49 -19 60 -26
11 -7 61 -18 110 -24 50 -7 106 -16 126 -21 20 -5 51 -9 70 -9 19 0 29 -4 23
-9 -13 -12 -148 -51 -177 -51 -28 0 -198 55 -317 102 -146 58 -410 211 -526
305 -188 153 -273 218 -359 273 -16 11 -39 25 -49 32 -11 7 -29 21 -40 31 -11
9 -24 17 -28 17 -9 0 -75 43 -178 115 -61 44 -126 85 -202 130 -18 10 -53 31
-78 46 -72 42 -193 110 -225 127 -16 9 -53 31 -82 49 -29 18 -59 33 -68 33 -8
0 -15 4 -15 9 0 5 -13 14 -30 21 -16 7 -51 26 -77 43 -71 46 -85 54 -123 74
-19 10 -37 21 -40 24 -3 3 -13 9 -23 12 -21 8 -18 32 4 33 8 0 43 10 79 21 36
12 93 29 127 37 34 8 79 23 100 32 21 10 46 18 56 19 10 1 25 9 32 16 25 25
-3 61 -78 97 -62 29 -67 34 -61 57 9 37 -15 220 -39 298 -19 60 -26 71 -56 85
-25 12 -43 32 -62 70 -14 29 -30 53 -35 52 -29 -5 -164 -207 -164 -246 0 -6
-9 -31 -19 -55 -10 -24 -22 -66 -26 -94 -10 -72 -20 -87 -58 -84 -18 2 -37 0
-42 -3 -22 -13 -92 -1 -130 23 -22 14 -62 34 -88 44 -26 10 -50 22 -53 27 -3
4 24 52 60 106 64 95 137 239 152 296 11 45 -8 25 -56 -56 -24 -40 -79 -128
-124 -195 -88 -133 -90 -135 -162 -109 -22 7 -63 17 -92 21 -43 6 -52 10 -48
23 3 10 14 58 25 107 23 104 38 168 76 320 15 61 53 215 85 343 32 128 60 235
63 238 2 3 18 -7 33 -22 16 -15 54 -47 84 -73 30 -25 64 -55 76 -66 56 -53
185 -142 217 -150 21 -6 29 -16 37 -49 21 -78 51 -163 65 -182 8 -10 15 -27
15 -36 0 -10 5 -18 10 -18 6 0 10 -6 10 -13 0 -8 17 -31 37 -52 31 -32 39 -36
41 -22 2 10 -1 30 -6 45 -99 263 -120 330 -145 467 -9 44 -24 121 -33 170 -26
130 -26 606 0 784 18 126 58 297 96 405 26 76 25 82 -5 24 -60 -115 -138 -364
-151 -482 -4 -34 -11 -69 -16 -78 -8 -16 -11 -16 -46 2 -20 10 -55 21 -77 24
-69 7 -77 14 -72 55 7 50 52 228 87 341 48 158 58 193 65 239 4 24 14 60 23
80 14 33 42 142 62 236 9 43 58 210 84 285 8 25 25 79 36 120 12 41 27 85 33
96 7 12 59 71 117 131 117 122 216 195 360 265 82 40 107 47 185 54 50 4 115
7 145 6 54 -2 54 -2 35 17 -16 16 -39 20 -120 24 -137 6 -180 -4 -334 -81
-115 -57 -146 -78 -222 -151 -87 -81 -125 -101 -81 -41 12 16 22 33 22 38 0
11 79 146 148 253 60 92 56 92 -68 -5 -668 -519 -1099 -1249 -1235 -2091 -18
-114 -34 -276 -28 -287 2 -5 66 -8 142 -8 131 0 161 -6 161 -32 0 -5 -68 -8
-151 -7 -83 0 -153 -2 -156 -5 -9 -8 -3 -320 8 -451 16 -196 84 -533 138 -689
12 -33 21 -66 21 -75 0 -9 9 -34 20 -55 10 -22 31 -75 46 -120 40 -121 198
-423 301 -576 92 -137 217 -302 233 -308 7 -3 110 159 110 173 0 4 60 98 81
128 13 19 35 -8 54 -65 11 -34 27 -69 37 -78 18 -17 82 -157 114 -252 19 -56
26 -213 12 -275 -7 -30 -4 -34 68 -92 119 -95 243 -176 253 -165 17 17 70 121
104 206 21 49 41 84 51 86 39 8 104 -82 105 -147 1 -14 8 -32 17 -42 8 -9 29
-50 45 -91 25 -60 30 -87 30 -149 l0 -77 72 -32 c295 -133 678 -238 982 -269
61 -6 129 -13 153 -16 23 -3 42 -2 42 1 0 7 -33 51 -77 103 -18 21 -33 43 -33
49 0 7 43 11 123 11 67 0 158 3 202 7 48 4 96 2 120 -5 29 -7 52 -8 79 0 21 6
46 12 55 14 82 16 252 75 328 114 61 32 58 42 -5 15 -20 -8 -67 -23 -103 -34
l-66 -18 14 29 c30 60 22 65 -177 109 -143 32 -171 42 -180 64 -18 49 -41 137
-55 211 -9 44 -24 114 -35 155 -19 76 -53 233 -70 325 -9 51 -54 253 -66 291
-5 19 -1 22 43 29 119 18 331 113 372 168 7 10 26 31 41 47 15 16 30 34 32 42
14 42 197 -117 274 -238 10 -16 21 -31 25 -34 14 -11 133 -199 176 -279 26
-47 70 -116 98 -153 27 -37 66 -90 85 -118 44 -64 135 -127 196 -136 75 -11
103 3 139 69 25 44 34 54 39 41 12 -32 -99 -153 -244 -266 -19 -14 -57 -44
-85 -65 -27 -21 -79 -59 -114 -83 -34 -24 -59 -46 -53 -48 14 -4 103 33 153
65 166 106 301 231 344 318 13 28 24 44 25 38 0 -7 24 -57 54 -110 29 -54 73
-144 97 -200 l43 -101 29 15 c24 12 28 19 22 41 -5 23 -35 86 -66 141 -5 9
-25 50 -44 91 -19 41 -43 87 -52 101 -50 72 -64 96 -70 119 -3 14 -18 63 -33
110 -47 145 -116 489 -102 513 2 5 13 -5 23 -22 36 -59 117 -86 190 -63 53 17
83 46 130 127 32 55 32 188 0 335 -13 58 -27 124 -32 147 -11 55 -44 120 -68
133 -28 15 -48 3 -68 -41 -10 -21 -24 -39 -30 -39 -7 0 -13 -4 -13 -9 0 -4
-11 -25 -25 -45 -14 -21 -34 -63 -44 -94 -11 -31 -33 -89 -50 -129 -17 -40
-31 -82 -31 -94 0 -12 -2 -20 -6 -17 -3 3 -8 94 -11 202 l-5 196 28 38 c15 20
31 39 34 42 16 12 80 111 80 123 0 31 59 64 156 87 38 9 80 26 254 107 87 40
297 140 397 188 50 25 94 45 97 45 15 0 59 -183 63 -263 2 -49 8 -109 13 -135
5 -28 5 -54 -1 -64 -6 -10 -7 -24 -3 -30 14 -22 18 -123 18 -418 1 -288 -8
-622 -20 -767 -3 -40 -2 -73 3 -72 9 0 131 138 146 164 9 17 12 712 3 850 -3
39 -8 144 -11 235 -4 90 -9 169 -13 174 -3 5 -6 21 -7 35 -9 104 -28 256 -40
305 -14 59 -14 60 11 83 14 13 31 23 39 23 8 0 19 9 25 20 6 11 20 20 31 20
11 0 41 20 68 45 45 42 49 44 64 27 8 -9 27 -46 42 -82 32 -81 112 -242 143
-287 12 -19 22 -40 22 -48 0 -8 15 -38 34 -67 18 -29 57 -98 86 -153 61 -117
76 -139 83 -128 15 24 48 159 44 179 -2 13 -1 21 3 19 12 -8 55 187 86 390 45
299 30 805 -33 1080 -62 272 -100 399 -180 594 -91 224 -177 385 -318 596
-161 241 -397 504 -607 677 -73 60 -138 97 -138 77 0 -10 27 -39 57 -60 40
-28 84 -109 123 -231 22 -67 42 -134 45 -148 2 -14 11 -45 20 -70 22 -58 50
-232 64 -387 17 -189 17 -190 -29 -101 -98 192 -217 318 -350 372 -25 10 -54
22 -65 26 -110 45 -225 65 -318 56 -67 -6 -72 -5 -106 22 -20 16 -46 34 -58
41 -29 15 -29 27 0 46 24 15 174 52 262 63 56 8 370 -8 370 -18 0 -1 7 -3 15
-5 8 -1 43 -10 76 -19 75 -19 74 -19 74 -1 0 24 -38 42 -155 75 -98 27 -125
30 -245 30 -152 0 -266 -21 -343 -65 -25 -14 -54 -25 -64 -25 -10 0 -29 -7
-41 -16 -21 -15 -25 -14 -58 15 -19 17 -71 52 -115 78 -44 25 -82 50 -84 54
-4 6 19 21 130 85 11 6 54 31 95 56 75 45 203 96 291 117 40 9 87 14 226 25
44 3 52 13 18 22 -31 8 -21 24 15 25 34 0 100 -15 128 -30 13 -7 26 -11 28 -8
10 9 -314 217 -442 285 -357 187 -744 308 -1141 358 -116 14 -539 28 -588 19z
m2161 -2466 c19 -104 22 -219 11 -414 -12 -197 -7 -186 -91 -201 -39 -7 -39
-7 -32 22 4 16 9 43 11 59 2 17 8 62 14 100 6 39 11 136 11 216 0 97 5 159 14
185 7 22 17 66 21 99 9 75 19 59 41 -66z m-5080 -114 c9 -8 32 -15 52 -15 20
-1 80 -10 132 -21 52 -11 135 -26 184 -34 48 -8 93 -18 100 -23 6 -5 25 -12
41 -15 17 -3 66 -15 110 -27 44 -12 86 -22 93 -22 10 -1 12 -27 9 -115 -2 -62
-6 -116 -9 -119 -3 -3 -46 21 -94 53 -101 65 -100 65 -184 116 -70 42 -200 90
-233 85 -27 -4 48 -51 253 -159 25 -13 47 -27 48 -31 2 -5 8 -8 13 -8 8 0 186
-103 197 -114 2 -2 5 -53 8 -112 2 -60 6 -115 9 -124 2 -8 7 -44 10 -79 4 -36
10 -72 15 -82 5 -9 9 -32 9 -50 -1 -19 4 -47 10 -62 20 -52 9 -50 -49 6 -25
24 -76 70 -115 103 -38 33 -104 94 -146 137 -42 42 -81 77 -87 77 -7 0 -12 5
-12 10 0 6 -26 38 -57 72 -102 108 -117 124 -170 184 -96 109 -135 157 -144
178 -5 12 -18 35 -29 51 -46 71 -52 115 -18 139 28 20 36 20 54 1z m5528 -334
c6 -9 4 -12 -5 -9 -16 5 -31 58 -22 78 4 10 8 3 13 -20 3 -20 10 -42 14 -49z
m289 -221 c45 -6 96 -18 114 -26 17 -8 40 -14 52 -14 12 0 21 -4 21 -8 0 -5
-55 -20 -122 -35 -68 -14 -163 -35 -213 -46 -49 -10 -124 -24 -165 -31 -41 -6
-95 -15 -120 -20 -38 -8 -234 -39 -335 -54 -16 -2 -58 -14 -93 -26 -35 -12
-66 -20 -69 -17 -3 4 0 20 6 38 6 18 11 44 11 58 0 14 11 60 24 101 l24 75 83
13 c98 16 546 22 627 8 48 -8 52 -7 52 11 0 30 15 38 18 10 3 -23 9 -26 85
-37z m222 -80 c3 -5 1 -10 -4 -10 -6 0 -11 5 -11 10 0 6 2 10 4 10 3 0 8 -4
11 -10z m-85 -47 c0 -5 -27 -30 -60 -57 -33 -28 -60 -54 -60 -59 0 -18 -121
-127 -140 -127 -10 0 -22 -9 -25 -20 -3 -11 -15 -20 -25 -20 -10 0 -47 -26
-82 -57 -50 -46 -105 -79 -268 -160 -178 -88 -319 -156 -450 -216 l-35 -16
-19 37 c-22 44 -32 52 -68 52 -19 0 -28 5 -28 16 0 13 40 98 96 206 8 14 14
33 14 42 0 9 5 24 11 34 6 9 20 46 32 81 l22 64 75 19 c67 17 132 27 420 68
47 6 114 18 150 26 36 8 94 19 130 24 36 4 106 20 155 33 50 14 101 27 115 30
14 2 28 5 33 6 4 0 7 -2 7 -6z m-410 -453 c0 -5 -5 -10 -11 -10 -5 0 -7 5 -4
10 3 6 8 10 11 10 2 0 4 -4 4 -10z m-843 -226 c15 -4 26 -18 32 -42 11 -39 7
-52 -15 -52 -8 0 -37 -12 -65 -26 -28 -14 -53 -23 -56 -21 -6 7 38 97 48 97 5
0 9 8 9 18 0 31 9 36 47 26z m-3744 -476 c14 -13 30 -38 36 -56 13 -42 1 -48
-72 -32 -30 6 -66 8 -80 5 -31 -8 -40 5 -26 42 10 31 36 49 79 56 14 2 28 5
32 6 4 0 18 -9 31 -21z m3367 -100 c0 -38 -3 -49 -10 -38 -16 25 -11 90 7 90
2 0 3 -24 3 -52z m-527 -158 c24 -12 69 -43 99 -70 31 -28 60 -50 64 -50 10 0
69 -66 101 -115 15 -22 37 -51 49 -65 25 -28 62 -88 129 -207 26 -46 51 -85
56 -88 18 -11 9 -25 -16 -25 -86 0 -147 -79 -124 -162 33 -126 107 -188 220
-188 27 0 49 -2 49 -4 0 -3 -5 -17 -10 -32 -10 -26 -13 -27 -65 -21 -72 7
-122 43 -188 134 -170 233 -166 227 -259 411 -34 67 -65 122 -70 122 -4 0 -8
5 -8 10 0 15 -76 116 -120 161 -42 44 -105 85 -142 94 -40 10 -35 19 20 34 26
7 74 28 107 46 33 18 61 33 63 34 1 0 22 -8 45 -19z m1787 -41 c0 -6 -4 -7
-10 -4 -5 3 -10 11 -10 16 0 6 5 7 10 4 6 -3 10 -11 10 -16z m-986 -5 c62 -30
61 -107 -3 -186 -27 -34 -117 -13 -96 22 3 5 -1 20 -9 32 -32 45 -12 118 38
138 29 12 31 12 70 -6z m-280 -74 c22 -21 -11 -30 -113 -30 -93 0 -110 3 -125
19 -11 12 -13 20 -6 23 20 6 235 -4 244 -12z"/>
<path d="M3989 5753 c11 -21 154 -155 172 -161 33 -12 238 -269 239 -299 0 -6
4 -13 8 -15 13 -5 56 -104 81 -183 13 -38 27 -79 32 -90 9 -20 50 -174 94
-355 13 -52 33 -131 44 -175 11 -44 21 -89 21 -100 0 -17 2 -17 10 -5 25 38
-4 376 -39 465 -8 19 -17 51 -45 161 -7 27 -17 57 -21 65 -5 8 -11 22 -12 31
-2 10 -12 35 -23 55 -11 21 -20 42 -20 47 0 14 -71 149 -85 161 -6 6 -24 30
-39 54 -38 60 -169 187 -250 244 -37 26 -70 47 -73 47 -3 0 -28 17 -55 37 -39
28 -48 32 -39 16z"/>
<path d="M3016 5732 c-3 -5 -31 -15 -62 -22 -31 -8 -74 -26 -95 -42 -21 -15
-44 -28 -49 -28 -6 0 -13 -6 -16 -14 -3 -8 -15 -17 -27 -20 -12 -3 -38 -20
-58 -38 -19 -18 -62 -55 -95 -83 -201 -168 -375 -376 -428 -510 -15 -38 -15
-39 2 -15 60 87 147 195 207 259 63 67 233 210 317 269 79 55 167 109 213 132
28 14 53 29 56 33 3 5 18 10 32 11 46 5 93 46 70 59 -19 11 -62 16 -67 9z"/>
<path d="M3345 5424 c-51 -47 -92 -82 -133 -112 -13 -9 -37 -29 -55 -43 -18
-14 -54 -43 -82 -64 -27 -20 -71 -56 -96 -79 -26 -22 -71 -58 -100 -78 -30
-20 -83 -57 -119 -82 -36 -25 -119 -77 -185 -116 -66 -39 -127 -75 -135 -80
-92 -55 -136 -80 -197 -111 -40 -21 -93 -51 -118 -68 -27 -18 -45 -25 -45 -18
0 7 13 52 29 100 29 86 27 121 -5 72 -9 -14 -22 -40 -28 -58 -7 -17 -19 -48
-28 -67 -41 -89 -58 -131 -58 -143 0 -8 -3 -17 -7 -20 -21 -22 -93 -320 -92
-382 0 -11 -2 -42 -5 -70 -13 -135 -14 -465 -2 -556 25 -176 59 -344 79 -384
21 -44 46 -75 59 -75 13 0 9 57 -8 124 -9 33 -18 70 -19 81 -2 11 -11 67 -20
125 -8 58 -18 116 -20 130 -4 21 -18 270 -18 320 0 35 15 268 19 305 3 22 7
55 9 74 5 37 32 161 45 201 4 14 13 45 20 70 22 83 26 87 112 131 126 64 177
89 184 89 3 0 40 23 81 50 41 28 78 50 82 50 8 0 25 10 179 110 l84 54 36 -19
c45 -23 68 -48 88 -97 9 -21 20 -38 24 -38 5 0 15 -3 24 -6 21 -8 21 13 0 75
-15 48 -47 81 -92 95 -27 9 -24 27 6 41 12 5 22 13 22 17 0 5 6 8 13 8 7 0 38
22 68 48 29 26 86 72 124 101 39 30 77 61 85 70 8 9 38 34 65 56 28 21 65 53
84 69 36 34 117 146 104 146 -5 0 -31 -21 -58 -46z"/>
<path d="M3520 5378 c0 -18 19 -65 68 -168 29 -59 74 -130 167 -265 19 -27 51
-74 70 -102 l35 -53 -54 -34 c-53 -34 -96 -88 -96 -120 0 -33 39 -93 67 -104
15 -6 55 -13 88 -17 33 -3 81 -9 108 -12 47 -6 60 4 34 25 -7 6 -59 22 -116
36 -111 28 -126 35 -134 68 -7 23 49 85 100 112 29 15 31 14 66 -22 21 -21 37
-43 37 -48 0 -6 12 -22 28 -36 37 -34 72 -76 72 -87 0 -5 48 -53 108 -107 59
-54 109 -101 110 -106 2 -4 7 -8 12 -8 5 0 21 -12 37 -27 16 -16 51 -47 78
-70 28 -23 64 -54 80 -68 17 -14 57 -44 90 -67 33 -22 59 -43 58 -47 0 -3 -4
-47 -7 -98 -3 -50 -10 -111 -15 -135 -5 -24 -13 -72 -16 -108 -4 -36 -10 -68
-14 -73 -4 -4 -21 0 -38 8 -27 14 -35 13 -74 -1 -31 -12 -77 -17 -154 -17
-132 -1 -194 12 -469 98 -134 42 -174 47 -188 25 -8 -12 0 -31 33 -79 50 -73
86 -103 149 -124 47 -16 60 -39 25 -45 -25 -5 -75 -51 -75 -69 0 -27 66 -15
114 22 37 28 50 33 68 26 83 -33 137 -42 247 -41 168 1 238 25 318 109 l42 45
-19 -64 c-10 -35 -17 -67 -14 -71 2 -5 0 -16 -5 -26 -5 -10 -24 -65 -42 -123
-18 -58 -68 -179 -111 -269 -43 -90 -78 -170 -76 -177 3 -13 118 122 144 169
29 52 63 129 82 184 77 228 97 305 112 428 7 55 16 123 20 150 8 52 13 200 11
345 -1 89 -11 145 -26 145 -5 0 -9 -13 -10 -30 -1 -16 -2 -58 -3 -92 -1 -35
-6 -63 -10 -63 -5 0 -38 28 -73 63 -36 34 -90 84 -120 111 -105 94 -294 282
-347 346 -30 36 -80 93 -111 127 -73 81 -127 150 -208 270 -36 54 -71 103 -77
108 -7 6 -40 58 -75 116 -78 130 -100 161 -101 137z"/>
<path d="M2876 4691 c-3 -5 -103 -8 -221 -7 -119 1 -221 -2 -228 -6 -9 -5 -9
-12 -1 -25 9 -15 27 -17 140 -15 221 3 316 17 328 47 6 16 -9 21 -18 6z"/>
<path d="M2777 4064 c-6 -7 -47 -11 -172 -19 -49 -3 -94 -10 -99 -15 -5 -5 6
-16 25 -26 57 -29 265 -24 302 8 l22 18 -24 20 c-23 20 -43 25 -54 14z"/>
<path d="M1996 3964 c-9 -25 -7 -63 5 -87 12 -22 92 -101 119 -117 12 -7 8
-15 -22 -43 -37 -34 -48 -57 -28 -57 20 0 75 28 98 50 18 17 31 21 55 16 124
-24 202 -28 313 -18 64 5 121 15 127 21 6 6 19 11 29 11 15 0 52 21 116 65 27
19 28 45 4 75 -19 23 -19 23 -131 10 -200 -23 -399 -1 -591 64 -89 31 -86 30
-94 10z"/>
<path d="M3700 3940 c-13 -8 -10 -14 15 -34 52 -43 277 -84 296 -55 5 8 9 17
9 20 0 13 -55 29 -133 39 -74 8 -115 17 -157 34 -8 3 -22 1 -30 -4z"/>
<path d="M3067 3594 c-11 -11 -8 -49 5 -62 17 -17 73 -15 88 2 6 8 10 25 8 38
-3 20 -10 23 -48 26 -25 2 -49 0 -53 -4z"/>
<path d="M1600 3509 c0 -21 51 -150 93 -234 l25 -50 -25 -95 c-27 -104 -41
-284 -24 -310 23 -33 35 8 38 123 3 125 21 253 33 240 5 -4 13 -42 19 -83 11
-78 54 -224 75 -250 6 -8 20 -31 30 -50 11 -19 37 -62 58 -94 40 -64 44 -86
28 -181 -16 -101 -39 -212 -59 -294 -12 -46 -21 -93 -21 -105 0 -41 -13 -49
-56 -36 -22 7 -53 10 -69 8 -29 -3 -29 -3 20 -29 28 -14 100 -52 160 -84 61
-32 124 -65 140 -73 52 -27 136 -83 258 -171 231 -168 263 -191 380 -271 64
-44 120 -80 123 -80 3 0 -13 23 -36 50 l-42 50 16 34 c9 19 16 41 16 49 0 9 4
18 10 22 5 3 26 40 46 83 21 42 52 100 69 127 17 28 37 64 43 80 12 30 12 30
85 27 57 -3 70 -1 60 9 -10 10 -6 19 17 46 17 19 30 44 30 56 0 38 12 67 26
67 8 0 14 4 14 9 0 11 -127 61 -156 61 -11 0 -40 6 -65 14 -24 8 -98 31 -164
51 -66 20 -154 50 -195 67 -41 17 -100 40 -130 52 -30 12 -98 43 -150 70 -76
40 -112 66 -180 136 -47 47 -105 110 -129 139 -45 54 -195 337 -186 351 2 4
29 -17 59 -46 50 -49 127 -86 144 -70 3 3 -29 41 -71 83 -42 43 -86 92 -99
108 -12 17 -28 34 -35 38 -7 4 -13 12 -13 17 0 5 -21 44 -47 87 -27 43 -68
122 -93 175 -43 93 -70 123 -70 77z m750 -1213 c0 -2 -7 -7 -16 -10 -8 -3 -12
-2 -9 4 6 10 25 14 25 6z m164 -35 c24 -11 53 -32 62 -48 23 -36 97 -127 107
-131 4 -2 21 -15 37 -29 16 -13 58 -38 92 -55 35 -18 75 -40 90 -51 l26 -20
-38 -56 c-41 -61 -79 -129 -146 -258 l-42 -83 -79 66 c-43 36 -83 72 -89 80
-6 8 -16 14 -22 14 -6 0 -12 3 -14 8 -9 21 -339 252 -360 252 -6 0 -22 8 -36
18 -15 10 -36 22 -47 26 -18 6 -12 14 46 69 110 103 181 149 279 181 38 12 73
25 77 29 8 9 5 10 57 -12z m222 -85 c27 -8 62 -17 77 -20 26 -6 27 -9 21 -44
-4 -20 -8 -39 -9 -40 -8 -9 -95 41 -135 77 -51 46 -41 52 46 27z"/>
<path d="M2820 3131 c0 -10 21 -35 48 -56 26 -21 52 -43 57 -50 6 -6 31 -25
57 -43 69 -47 143 -41 263 22 17 9 35 16 42 16 17 0 83 40 83 50 0 5 3 15 6
24 9 23 -40 21 -95 -4 -24 -11 -50 -20 -57 -20 -13 0 -22 -3 -76 -31 -62 -32
-75 -30 -135 19 -96 78 -120 92 -158 92 -28 0 -35 -4 -35 -19z"/>
</g>
</svg>
